<svg xmlns="http://www.w3.org/2000/svg" viewBox="0 0 120 120" width="120" height="120">
  <circle cx="60" cy="60" r="58" fill="#ffe3f1"/>
  <!-- ears -->
  <circle cx="34" cy="36" r="15" fill="#d9a86c"/>
  <circle cx="86" cy="36" r="15" fill="#d9a86c"/>
  <circle cx="34" cy="36" r="7" fill="#f2b8c6"/>
  <circle cx="86" cy="36" r="7" fill="#f2b8c6"/>
  <!-- head -->
  <ellipse cx="60" cy="66" rx="42" ry="38" fill="#f3d09a"/>
  <!-- muzzle -->
  <ellipse cx="60" cy="76" rx="28" ry="22" fill="#fdf0d5"/>
  <!-- cheeks -->
  <circle cx="30" cy="74" r="12" fill="#fbe0e6"/>
  <circle cx="90" cy="74" r="12" fill="#fbe0e6"/>
  <!-- eyes -->
  <circle cx="47" cy="62" r="5.5" fill="#3b2b20"/>
  <circle cx="73" cy="62" r="5.5" fill="#3b2b20"/>
  <circle cx="49" cy="60" r="1.8" fill="#fff"/>
  <circle cx="75" cy="60" r="1.8" fill="#fff"/>
  <!-- nose -->
  <ellipse cx="60" cy="72" rx="4.5" ry="3.2" fill="#e58fa0"/>
  <!-- mouth -->
  <path d="M60 75 v3" stroke="#9c7a52" stroke-width="2" fill="none" stroke-linecap="round"/>
  <path d="M60 78 q-6 5 -11 0" stroke="#9c7a52" stroke-width="2" fill="none" stroke-linecap="round"/>
  <path d="M60 78 q6 5 11 0" stroke="#9c7a52" stroke-width="2" fill="none" stroke-linecap="round"/>
</svg>
